<?xml version="1.0" encoding="UTF-8" standalone="no"?>
<svg id="Layer_1" version="1.1" viewBox="0 0 200 200" width="200" height="200" xmlns:xlink="http://www.w3.org/1999/xlink" xmlns="http://www.w3.org/2000/svg" xmlns:svg="http://www.w3.org/2000/svg">
  
  <defs id="defs50">
    
    <linearGradient id="linear-gradient3" x1="1872.5" y1="934.29999" x2="1872.5" y2="934.29999" gradientUnits="userSpaceOnUse">
      <stop offset="0" stop-color="#256493" id="stop8"></stop>
      <stop offset=".8" stop-color="#341f44" id="stop9"></stop>
    </linearGradient>
    <linearGradient id="linear-gradient13" x1="367.29999" y1="680.40002" x2="367.29999" y2="739.20001" xlink:href="#linear-gradient3"></linearGradient>
  </defs>
  <g id="g266" transform="matrix(2.2660752,0,0,2.2660752,-732.32947,-1497.4193)">
    <circle class="st35" cx="367.29999" cy="704.90002" r="37.799999" id="circle177" style="fill:url(#linear-gradient13)"></circle>
    <g id="g182">
      <path class="st16" d="m 389.1,702.3 c 0,-12 -9.7,-21.8 -21.8,-21.8 -12.1,0 -21.59834,9.70168 -21.8,21.8 -0.0883,5.29902 1.4,8.6 3.7,12.1 v 0 l 3.7,5.4 c 3.5,5.3 5.3,6.7 5.3,13 h 18.2 c 0,-6.3 1.9,-7.8 5.3,-13 l 3.2,-4.7 c 2.6,-3.6 4.27665,-8 4.27665,-12.7 z" id="path179"></path>
      <path class="st13" d="m 364.1,737.6 v -19.9 c 0,-6.6 0.10436,-10.93039 -1.89564,-15.63039 -2,-4.7 -5.95666,-2.76077 -6.50436,-1.66961 v 0 c -1,1.3 -0.9,3.2 0.1,4.5 v 0 c 1.3,1.5 3.2,2.4 5.1,2.4 h 12.3" id="path180"></path>
      <path class="st13" d="m 370.7,737.6 v -19.9 c 0,-6.6 0.20252,-11.31889 2,-16.1 1.06077,-2.82155 4.6,-3.7 6.4,-1.2 v 0 c 1,1.3 0.9,3.2 -0.1,4.5 v 0 c -1.3,1.5 -3.2,2.4 -5.1,2.4 h -4.3" id="path181"></path>
      <path class="st62" d="m 376.4,741.6 c -9.1,2.6 -18.2,0 -18.2,0 v -8.81825 c -0.0887,0 18.2,0.0295 18.2,0.0295 z" id="path182"></path>
    </g>
  </g>
</svg>