<?xml version="1.0" encoding="UTF-8" standalone="no"?>
<svg id="Layer_1" version="1.1" viewBox="0 0 200 200" width="200" height="200" xmlns:xlink="http://www.w3.org/1999/xlink" xmlns="http://www.w3.org/2000/svg" xmlns:svg="http://www.w3.org/2000/svg">
  
  <defs id="defs50">
    
    <linearGradient id="linear-gradient3" x1="1872.5" y1="934.29999" x2="1872.5" y2="934.29999" gradientUnits="userSpaceOnUse">
      <stop offset="0" stop-color="#256493" id="stop8"></stop>
      <stop offset=".8" stop-color="#341f44" id="stop9"></stop>
    </linearGradient>
    <linearGradient id="linear-gradient11" x1="565.5" y1="680.40002" x2="565.5" y2="739.20001" xlink:href="#linear-gradient3"></linearGradient>
  </defs>
  <g id="g269" transform="matrix(2.2660752,0,0,2.2660752,-1181.4655,-1497.3563)">
    <g id="g176">
      <path class="st39" d="m 565.5,667.1 c -20.9,0 -37.75857,16.90004 -37.8,37.8 -0.0291,14.69906 9.05769,25.9199 16.1,30.9 l 8.1,-14.1 5.5,3.2 -8.2,14.1 c 4.9,2.3 10.4,3.7 16.3,3.7 20.9,0 37.8,-16.9 37.8,-37.8 0,-20.9 -16.9,-37.8 -37.8,-37.8 z" id="path175" style="fill:url(#linear-gradient11)"></path>
      <path class="st54" d="m 551.9,721.7 -8.1,14.1 c 1.7,1.2 3.6,2.3 5.5,3.2 l 8.2,-14.1 -5.5,-3.2 z" id="path176"></path>
    </g>
    <path class="st54" d="m 565.5,731.7 c -15.1,0 -27.5,-12.3 -27.5,-27.5 0,-15.2 12.3,-27.5 27.5,-27.5 15.2,0 27.5,12.3 27.5,27.5 0,15.2 -12.3,27.5 -27.5,27.5 z m 0,-48.9 c -11.8,0 -21.5,9.6 -21.5,21.5 0,11.9 9.6,21.5 21.5,21.5 11.9,0 21.5,-9.6 21.5,-21.5 0,-11.9 -9.6,-21.5 -21.5,-21.5 z" id="path242"></path>
    <path class="st3" d="m 580.4,703.9 c 0,-7.7 -6.2,-13.9 -13.9,-13.9" id="path243"></path>
  </g>
</svg>