<?xml version="1.0" encoding="UTF-8" standalone="no"?>
<svg id="Layer_1" version="1.1" viewBox="0 0 500.00001 250" width="500" height="250" xmlns="http://www.w3.org/2000/svg" xmlns:svg="http://www.w3.org/2000/svg">
  
  <defs id="defs50">
    
  </defs>
  <g id="g116" transform="translate(1363.35,489.45003)">
    <g id="g114">
      <g id="g110">
        <polygon class="st53" points="-1117.7,-447.4 -1117.7,-437.4 -1102.6,-437.4 -1102.6,-394.5 -1091.9,-394.5 -1091.9,-437.4 -1076.8,-437.4 -1076.8,-447.4 " id="polygon103"></polygon>
        <path class="st53" d="m -1055.7,-420.2 c 4.9,0 7.7,2.9 7.7,8.1 v 17.5 h 9.9 V -415 c 0,-4.5 -1.5,-8.3 -4.3,-11 -2.8,-2.6 -6.6,-4.1 -10.5,-3.9 -5.8,0.3 -9.5,3 -9.6,3 l -0.8,0.6 v -23 h -9.9 v 54.7 h 9.9 v -17.8 c 0,-4.9 2.9,-7.9 7.7,-7.9 h -0.1 z" id="path103"></path>
        <path class="st53" d="m -908.3,-358.3 c 4.9,0 7.7,2.9 7.7,8.1 v 17.5 h 9.9 v -20.4 c 0,-4.5 -1.5,-8.3 -4.3,-11 -2.8,-2.6 -6.6,-4.1 -10.5,-3.9 -5.8,0.3 -9.5,3 -9.6,3 l -0.8,0.6 v -23 h -9.9 v 54.7 h 9.9 v -17.8 c 0,-4.9 2.9,-7.9 7.7,-7.9 h -0.1 z" id="path104"></path>
        <path class="st53" d="m -1008.7,-295.2 c 4.9,0 7.7,2.9 7.7,8.1 v 17.5 h 9.9 V -290 c 0,-4.5 -1.5,-8.3 -4.3,-11 -2.8,-2.6 -6.6,-4.1 -10.5,-3.9 -5.8,0.3 -9.5,3 -9.6,3 l -0.5,0.4 -1.1,-2.8 h -9 v 34.7 h 9.9 v -17.8 c 0,-4.9 2.9,-7.9 7.7,-7.9 h -0.2 z" id="path105"></path>
        <path class="st53" d="m -1016.3,-429.8 c -10.1,0 -18.3,8.2 -18.3,18.3 0,10.1 8.2,18.3 18.3,18.3 10.1,0 12.7,-3.5 15.9,-9.5 l -7.7,-4.1 c -1.6,2 -4.1,4.5 -8.1,4.5 -4,0 -3.9,-0.7 -4.9,-1.3 l -0.8,-0.5 22.2,-11.2 c -0.2,-5.4 -5.7,-14.5 -16.6,-14.5 z m -9.1,18.5 v -0.9 c 0.8,-5.3 4.8,-9.3 9.4,-9.3 4.6,0 4.7,1.1 5.6,1.7 l 0.6,0.5 z" id="path106"></path>
        <path class="st53" d="m -1047.2,-306.1 c -10.1,0 -18.3,8.2 -18.3,18.3 0,10.1 8.2,18.3 18.3,18.3 10.1,0 12.7,-3.5 15.9,-9.5 l -7.7,-4.1 c -1.6,2 -4.1,4.5 -8.1,4.5 -4,0 -3.9,-0.7 -4.9,-1.3 l -0.8,-0.5 22.2,-11.2 c -0.2,-5.4 -5.7,-14.5 -16.6,-14.5 z m -9.1,18.5 v -0.9 c 0.8,-5.3 4.8,-9.3 9.4,-9.3 4.6,0 4.7,1.1 5.6,1.7 l 0.6,0.5 z" id="path107"></path>
        <path class="st53" d="m -1122.6,-359.1 c 0,15.2 12.4,27.6 27.6,27.6 15.2,0 13.9,-1.5 20.7,-8.6 v -22.6 h -21.2 l -4.6,9.7 h 15.2 v 8.6 c 0,0 -4.3,2.9 -10.1,2.9 -9.4,0 -17,-7.9 -17,-17.6 0,-9.7 7.6,-17.6 17,-17.6 9.4,0 8.4,1.9 12.5,4.9 l 7,-6.7 c -5.2,-5.3 -12.1,-8.2 -19.6,-8.2 -15.2,0 -27.6,12.4 -27.6,27.6 z" id="path108"></path>
        <polygon class="st53" points="-1059.5,-362.9 -1059.9,-366.8 -1069.5,-366.8 -1069.5,-332.7 -1059.6,-332.7 -1059.6,-353.4 -1050.7,-357.9 -1050.7,-367.6 " id="polygon108"></polygon>
        <path class="st53" d="m -1030.9,-368 c -10.1,0 -18.3,8.2 -18.3,18.3 0,10.1 8.2,18.3 18.3,18.3 10.1,0 18.3,-8.2 18.3,-18.3 0,-10.1 -8.2,-18.3 -18.3,-18.3 z m 0,27.5 c -4.6,0 -8.4,-4.1 -8.4,-9.2 0,-5.1 3.8,-9.2 8.4,-9.2 4.6,0 8.4,4.1 8.4,9.2 0,5.1 -3.8,9.2 -8.4,9.2 z" id="path109"></path>
        <polygon class="st53" points="-1003.1,-366.8 -1014.1,-366.8 -995.1,-330.8 -984.1,-349.1 -973,-330.8 -954,-366.8 -964.6,-366.8 -973.1,-349.5 -984,-368.7 -994.5,-349.4 " id="polygon109"></polygon>
        <polygon class="st53" points="-951.6,-366.8 -951.6,-357.7 -945.8,-357.7 -945.8,-332.7 -935.9,-332.7 -935.9,-357.7 -929.2,-357.7 -929.2,-366.8 -935.9,-366.8 -935.9,-381.6 -945.8,-376.1 -945.8,-366.8 " id="polygon110"></polygon>
        <path class="st53" d="m -1095.2,-322.4 h -22.4 v 52.9 h 22.4 c 14.6,0 26.4,-11.9 26.4,-26.4 0,-14.5 -11.9,-26.5 -26.4,-26.5 z m 0,42.8 h -11.8 v -32.8 h 11.8 c 8.7,0 15.8,7.4 15.8,16.4 0,9 -7.1,16.4 -15.8,16.4 z" id="path110"></path>
      </g>
      <g id="g113">
        <path class="st53" d="m -1251.1,-353.5 c -2.5,-1.7 -3.1,-5.1 -1.4,-7.6 1.7,-2.5 5.1,-3.1 7.6,-1.4 2.5,1.7 3.1,5.1 1.4,7.6 -1.7,2.5 -5.1,3.1 -7.6,1.4 z" id="path111"></path>
        <path class="st53" d="M -1204.3,-307.9" id="path112"></path>
        <path class="st53" d="m -1240.7,-459.7 v 0 c -52.6,0 -95.3,42.8 -95.3,95.4 v 68.8 l 39.7,-39.7 c -4,-2.4 -6.6,-6.8 -6.6,-11.7 0,-7.6 6.2,-13.7 13.7,-13.7 7.5,0 9.3,2.7 11.7,6.6 l 15.2,-15.2 c 5.2,-5.2 13.8,-5.2 19,0 l 26.5,-27.6 c 0,0 1.7,1.4 3.6,3.3 7.4,7.1 8.9,20.2 -5.5,29.7 -1.2,0.8 -0.3,2.7 1.1,2.3 4.9,-1.5 9.7,-4.2 13.3,-7.8 3.6,-3.6 2.8,-0.1 2.5,1.3 l -19.4,98.8 h 75.8 v -95.1 c 0,-52.6 -42.7,-95.3 -95.3,-95.3 z m 45.2,67.4 c -3.3,-8.1 -9.8,-14.6 -17.9,-17.9 8.1,-3.3 14.6,-9.8 17.9,-17.9 3.3,8.1 9.8,14.6 17.9,17.9 -8.1,3.3 -14.6,9.8 -17.9,17.9 z" id="path113"></path>
      </g>
    </g>
    <g class="st56" id="g115">
      <path class="st53" d="m -976.3,-279.3 c 0.8,0.4 1.4,1.1 1.8,1.8 0.4,0.8 0.7,1.7 0.7,2.6 0,0.9 -0.2,1.9 -0.7,2.6 -0.4,0.8 -1,1.4 -1.8,1.9 -0.8,0.4 -1.6,0.7 -2.6,0.7 -1,0 -1.9,-0.2 -2.6,-0.7 -0.7,-0.5 -1.4,-1.1 -1.8,-1.9 -0.4,-0.8 -0.7,-1.7 -0.7,-2.6 0,-0.9 0.2,-1.9 0.7,-2.6 0.4,-0.8 1,-1.4 1.8,-1.8 0.8,-0.4 1.7,-0.7 2.6,-0.7 0.9,0 1.8,0.2 2.6,0.7 z m 0.3,7.5 c 0.7,-0.8 1.1,-1.8 1.1,-3 0,-1.2 -0.4,-2.2 -1.1,-3 -0.7,-0.8 -1.7,-1.2 -2.9,-1.2 -1.2,0 -2.2,0.4 -2.9,1.2 -0.7,0.8 -1.1,1.8 -1.1,3 0,1.2 0.4,2.2 1.1,3 0.7,0.8 1.7,1.2 2.9,1.2 1.2,0 2.2,-0.4 2.9,-1.2 z m -1,-3 c -0.2,0.3 -0.5,0.5 -0.9,0.6 l 1.4,2.1 h -1.6 c 0,0 -1.2,-2 -1.2,-2 h -0.4 v 2 h -1.3 v -5.4 h 2.4 c 0.6,0 1,0.2 1.4,0.5 0.3,0.3 0.5,0.7 0.5,1.2 0,0.5 -0.1,0.7 -0.3,1 z m -2.7,-0.4 h 1 c 0.2,0 0.3,0 0.5,-0.2 0.1,-0.1 0.2,-0.2 0.2,-0.4 0,-0.2 0,-0.3 -0.2,-0.4 -0.1,0 -0.3,-0.1 -0.5,-0.1 h -1 z" id="path114"></path>
    </g>
  </g>
</svg>