<?xml version="1.0" encoding="UTF-8" standalone="no"?>
<svg id="Layer_1" version="1.1" viewBox="0 0 200 200" width="200" height="200" xmlns:xlink="http://www.w3.org/1999/xlink" xmlns="http://www.w3.org/2000/svg" xmlns:svg="http://www.w3.org/2000/svg">
  
  <defs id="defs50">
    
    <linearGradient id="linear-gradient3" x1="1872.5" y1="934.29999" x2="1872.5" y2="934.29999" gradientUnits="userSpaceOnUse">
      <stop offset="0" stop-color="#256493" id="stop8"></stop>
      <stop offset=".8" stop-color="#341f44" id="stop9"></stop>
    </linearGradient>
    <clipPath id="clippath-3">
      <path class="st0" d="m 506.1,704.9 c 0,20.9 -16.9,37.8 -37.8,37.8 -20.9,0 -37.8,-16.9 -37.8,-37.8 0,-20.9 18.2,-52.3 39.1,-52.3 45.6,0 36.5,31.5 36.5,52.3 z" id="path49"></path>
    </clipPath>
    <linearGradient id="linear-gradient35" x1="468.29999" y1="666.59998" x2="468.29999" y2="666.59998" gradientUnits="userSpaceOnUse">
      <stop offset="0" stop-color="#256493" id="stop49"></stop>
      <stop offset=".8" stop-color="#341f44" id="stop50"></stop>
    </linearGradient>
    <linearGradient id="linear-gradient36" x1="468.29999" y1="680" x2="468.29999" y2="739.20001" xlink:href="#linear-gradient3"></linearGradient>
  </defs>
  <g id="g265" transform="matrix(2.2660752,0,0,2.2660752,-961.31642,-1490.2182)">
    <ellipse class="st35" cx="467.87543" cy="705.05286" id="circle177-8" style="fill:#ffffff;fill-opacity:1;stroke-width:0.98899" rx="37.258976" ry="37.509045"></ellipse>
    <g class="st58" clip-path="url(#clippath-3)" id="g232">
      <g id="g231">
        <g id="g228">
          <path class="st30" d="m 468.3,666.6 c 0,0 0,0 0,0 0,0 0,0 0,0 h -0.1 z" id="path227" style="fill:url(#linear-gradient35)"></path>
          <path class="st32" d="m 468.3,742.7 c -14.3,0 -26.7,-7.9 -33.2,-19.5 l 35.3,-35.3 v 11.7 h 5.6 v -21.3 h -5.6 c 0,0.1 -15.8,0.1 -15.8,0.1 v 5.6 h 11.7 l -33.8,33.8 c -1.5,-4.1 -2.3,-8.5 -2.3,-13.1 0,-17.7 12.1,-32.6 28.4,-36.8 3.1,-0.8 6.3,-1.2 9.6,-1.2 3.3,0 1.4,0 2,0 0.1,0 0.3,0 0.4,0 0.5,0 1,0 1.5,0.1 19.2,2 34.1,18.2 34.1,37.8 0,19.6 -17,38 -38,38 z" id="path228" style="fill:url(#linear-gradient36)"></path>
        </g>
        <g id="g230">
          <rect class="st54" x="460.70001" y="706.40002" width="15.2" height="38.400002" id="rect228"></rect>
          <rect class="st55" x="481.29999" y="660.79999" width="15.2" height="81.400002" id="rect229"></rect>
          <rect class="st51" x="440.89999" y="725.09998" width="15.2" height="17" id="rect230"></rect>
        </g>
      </g>
    </g>
  </g>
</svg>