<?xml version="1.0" encoding="UTF-8" standalone="no"?>
<svg id="Layer_1" version="1.1" viewBox="0 0 750.00001 200" width="750" height="200" xmlns="http://www.w3.org/2000/svg" xmlns:svg="http://www.w3.org/2000/svg">
  
  <defs id="defs50">
    
  </defs>
  <g id="g261-2-3" transform="translate(-1652.2499,-355.04997)" style="fill:#ffffff">
    <g id="g74-7-9" style="fill:#ffffff">
      <path id="path70-3-6" style="fill:#ffffff" class="st18" d="m 1747.7004,397.80056 c -31.6,0 -57.3008,25.70039 -57.3008,57.40039 v 41.39844 L 1714.3,472.70095 c -2.4,-1.4 -4,-4.10156 -4,-7.10156 0,-4.6 3.7008,-8.29883 8.3008,-8.29883 4.6,0 5.5996,1.6 7.0996,4 l 9.1992,-9.20117 c 3.1,-3.1 8.3004,-3.1 11.4004,0 l 15.9004,-16.59961 c 0,0 0.9992,0.8 2.1992,2 4.5,4.3 5.4012,12.20039 -3.2988,17.90039 -0.7,0.5 -0.2008,1.60039 0.6992,1.40039 2.9,-0.9 5.8,-2.50117 8,-4.70117 0.6,-0.6 1.7,7.8e-4 1.5,0.80078 l -11.6992,59.40039 h 45.5996 v -57.20117 c 0,-31.6 -25.7008,-57.29883 -57.3008,-57.29883 z m 27.1992,19 c 2,4.9 5.9008,8.79883 10.8008,10.79883 -4.9,2 -8.8008,5.90078 -10.8008,10.80078 -2,-4.9 -5.8988,-8.80078 -10.7988,-10.80078 4.9,-2 8.7988,-5.89883 10.7988,-10.79883 z"></path>
      <g id="g73-9-6" style="fill:#ffffff">
        <path class="st62" d="m 1741.5,461.6 c -1.5,-1 -1.9,-3.1 -0.8,-4.6 1,-1.5 3.1,-1.9 4.6,-0.8 1.5,1 1.9,3.1 0.8,4.6 -1.1,1.5 -3.1,1.9 -4.6,0.8 z" id="path71-7-4" style="fill:#ffffff"></path>
        <path class="st64" d="M 1769.6,489.1" id="path72-7-0" style="fill:#ffffff"></path>
      </g>
    </g>
    <g id="g83-5-2" style="fill:#ffffff">
      <g id="g75-3-0" style="fill:#ffffff">
        <polygon class="st53" points="1852.5,488.1 1863.2,488.1 1863.2,445.2 1878.3,445.2 1878.3,435.2 1837.4,435.2 1837.4,445.2 1852.5,445.2 " id="polygon74-3-6" style="fill:#ffffff"></polygon>
        <path class="st53" d="m 1899.4,462.4 c 4.9,0 7.7,2.9 7.7,8.1 V 488 h 9.9 v -20.4 c 0,-4.5 -1.5,-8.3 -4.3,-11 -2.8,-2.6 -6.6,-4.1 -10.5,-3.9 -5.8,0.3 -9.5,3 -9.6,3 l -0.8,0.6 v -23 h -9.9 V 488 h 9.9 v -17.8 c 0,-4.9 2.9,-7.9 7.7,-7.9 h -0.1 z" id="path74-3-0" style="fill:#ffffff"></path>
        <path class="st53" d="m 1938.8,452.8 c -10.1,0 -18.3,8.2 -18.3,18.3 0,10.1 8.2,18.3 18.3,18.3 10.1,0 12.7,-3.5 15.9,-9.5 l -7.7,-4.1 c -1.6,2 -4.1,4.5 -8.1,4.5 -4,0 -3.9,-0.7 -4.9,-1.3 l -0.8,-0.5 22.2,-11.2 c -0.2,-5.4 -5.7,-14.5 -16.6,-14.5 z m -9.1,18.5 v -0.9 c 0.8,-5.3 4.8,-9.3 9.4,-9.3 4.6,0 4.7,1.1 5.6,1.7 l 0.6,0.5 z" id="path75-8-7" style="fill:#ffffff"></path>
      </g>
      <g id="g79-5-2" style="fill:#ffffff">
        <path class="st53" d="m 2185.4,462.5 c 4.9,0 7.7,2.9 7.7,8.1 v 17.5 h 9.9 v -20.4 c 0,-4.5 -1.5,-8.3 -4.3,-11 -2.8,-2.6 -6.6,-4.1 -10.5,-3.9 -5.8,0.3 -9.5,3 -9.6,3 l -0.8,0.6 v -23 h -9.9 v 54.7 h 9.9 v -17.8 c 0,-4.9 2.9,-7.9 7.7,-7.9 h -0.1 z" id="path76-8-9" style="fill:#ffffff"></path>
        <path class="st53" d="m 1971.1,461.7 c 0,15.2 12.4,27.6 27.6,27.6 15.2,0 13.9,-1.5 20.7,-8.6 v -22.6 h -21.2 l -4.6,9.7 h 15.2 v 8.6 c 0,0 -4.3,2.9 -10.1,2.9 -9.4,0 -17,-7.9 -17,-17.6 0,-9.7 7.6,-17.6 17,-17.6 9.4,0 8.4,1.9 12.5,4.9 l 7,-6.7 c -5.2,-5.3 -12.1,-8.2 -19.6,-8.2 -15.2,0 -27.6,12.4 -27.6,27.6 z" id="path77-9-8" style="fill:#ffffff"></path>
        <polygon class="st53" points="2024.2,488.1 2034.1,488.1 2034.1,467.4 2043,462.9 2043,453.2 2034.2,457.9 2033.8,454 2024.2,454 " id="polygon77-6-1" style="fill:#ffffff"></polygon>
        <path class="st53" d="m 2062.8,452.8 c -10.1,0 -18.3,8.2 -18.3,18.3 0,10.1 8.2,18.3 18.3,18.3 10.1,0 18.3,-8.2 18.3,-18.3 0,-10.1 -8.2,-18.3 -18.3,-18.3 z m 0,27.5 c -4.6,0 -8.4,-4.1 -8.4,-9.2 0,-5.1 3.8,-9.2 8.4,-9.2 4.6,0 8.4,4.1 8.4,9.2 0,5.1 -3.8,9.2 -8.4,9.2 z" id="path78-0-1" style="fill:#ffffff"></path>
        <polygon class="st53" points="2139.7,454 2129.1,454 2120.6,471.3 2109.7,452.1 2099.2,471.4 2090.6,454 2079.6,454 2098.6,490 2109.6,471.7 2120.7,490 " id="polygon78-4-6" style="fill:#ffffff"></polygon>
        <polygon class="st53" points="2147.9,454 2142.1,454 2142.1,463.1 2147.9,463.1 2147.9,488.1 2157.8,488.1 2157.8,463.1 2164.5,463.1 2164.5,454 2157.8,454 2157.8,439.2 2147.9,444.7 " id="polygon79-2-1" style="fill:#ffffff"></polygon>
      </g>
      <g id="g82-3-1" style="fill:#ffffff">
        <path class="st53" d="m 2329.2,462.4 c 4.9,0 7.7,2.9 7.7,8.1 V 488 h 9.9 v -20.4 c 0,-4.5 -1.5,-8.3 -4.3,-11 -2.8,-2.6 -6.6,-4.1 -10.5,-3.9 -5.8,0.3 -9.5,3 -9.6,3 l -0.5,0.4 -1.1,-2.8 h -9 V 488 h 9.9 v -17.8 c 0,-4.9 2.9,-7.9 7.7,-7.9 h -0.2 z" id="path79-3-8" style="fill:#ffffff"></path>
        <path class="st53" d="m 2290.7,452.7 c -10.1,0 -18.3,8.2 -18.3,18.3 0,10.1 8.2,18.3 18.3,18.3 10.1,0 12.7,-3.5 15.9,-9.5 l -7.7,-4.1 c -1.6,2 -4.1,4.5 -8.1,4.5 -4,0 -3.9,-0.7 -4.9,-1.3 l -0.8,-0.5 22.2,-11.2 c -0.2,-5.4 -5.7,-14.5 -16.6,-14.5 z m -9.1,18.5 v -0.9 c 0.8,-5.3 4.8,-9.3 9.4,-9.3 4.6,0 4.7,1.1 5.6,1.7 l 0.6,0.5 z" id="path80-7-1" style="fill:#ffffff"></path>
        <path class="st53" d="m 2242.7,435.2 h -22.4 v 52.9 h 22.4 c 14.6,0 26.4,-11.9 26.4,-26.4 0,-14.5 -11.9,-26.5 -26.4,-26.5 z m 0,42.8 h -11.8 v -32.8 h 11.8 c 8.7,0 15.8,7.4 15.8,16.4 0,9 -7.1,16.4 -15.8,16.4 z" id="path81-0-1" style="fill:#ffffff"></path>
        <path class="st53" d="m 2361.6,478.3 c 0.8,0.4 1.4,1.1 1.8,1.8 0.4,0.8 0.7,1.7 0.7,2.6 0,0.9 -0.2,1.9 -0.7,2.6 -0.4,0.8 -1,1.4 -1.8,1.9 -0.8,0.4 -1.6,0.7 -2.6,0.7 -1,0 -1.9,-0.2 -2.6,-0.7 -0.7,-0.5 -1.4,-1.1 -1.8,-1.9 -0.4,-0.8 -0.7,-1.7 -0.7,-2.6 0,-0.9 0.2,-1.9 0.7,-2.6 0.4,-0.8 1,-1.4 1.8,-1.8 0.8,-0.4 1.7,-0.7 2.6,-0.7 0.9,0 1.8,0.2 2.6,0.7 z m 0.3,7.5 c 0.7,-0.8 1.1,-1.8 1.1,-3 0,-1.2 -0.4,-2.2 -1.1,-3 -0.7,-0.8 -1.7,-1.2 -2.9,-1.2 -1.2,0 -2.2,0.4 -2.9,1.2 -0.7,0.8 -1.1,1.8 -1.1,3 0,1.2 0.4,2.2 1.1,3 0.7,0.8 1.7,1.2 2.9,1.2 1.2,0 2.2,-0.4 2.9,-1.2 z m -1,-3 c -0.2,0.3 -0.5,0.5 -0.9,0.6 l 1.4,2.1 h -1.6 c 0,0 -1.2,-2 -1.2,-2 h -0.4 v 2 h -1.3 v -5.4 h 2.4 c 0.6,0 1,0.2 1.4,0.5 0.3,0.3 0.5,0.7 0.5,1.2 0,0.5 -0.1,0.7 -0.3,1 z m -2.7,-0.4 h 1 c 0.2,0 0.3,0 0.5,-0.2 0.1,-0.1 0.2,-0.2 0.2,-0.4 0,-0.2 0,-0.3 -0.2,-0.4 -0.1,0 -0.3,-0.1 -0.5,-0.1 h -1 z" id="path82-0-5" style="fill:#ffffff"></path>
      </g>
    </g>
  </g>
</svg>