<?xml version="1.0" encoding="UTF-8" standalone="no"?>
<svg id="Layer_1" version="1.1" viewBox="0 0 598.23236 528.09477" width="598.23236" height="528.09479" xmlns="http://www.w3.org/2000/svg" xmlns:svg="http://www.w3.org/2000/svg">
  
  <defs id="defs50">
    
  </defs>
  <g id="g242" transform="matrix(4.6053334,0,0,4.6053334,-916.25367,-8660.4664)">
    <g id="g240">
      <path class="st16" d="m 310.9,1895.5 c -1.4,1.4 -3.4,2.5 -5.3,3.1 -0.6,0.2 -0.9,-0.6 -0.4,-0.9 5.8,-3.8 5.2,-9.1 2.2,-11.9 -0.8,-0.8 -1.4,-1.3 -1.4,-1.3 l -10.6,11.1 c -2.1,-2.1 -5.5,-2.1 -7.6,0 l -6.1,6.1 c -0.9,-1.5 -1.6,-2.6 -4.2,-2.7 -2.6,-0.1 -5.7,2 -6,4.9 -0.2,2.3 0.9,4.3 2.7,5.3 l -43.2,43.2 c -15.8,15.8 -4.6,42.8 17.7,42.8 h 51.5 v -0.5 c 0,-2.5 -0.8,-4.8 -2,-6.9 -1.2,-2.1 -2.8,-6.8 -1.2,-15 v 0 c 0,0 15.1,-76.8 15.1,-76.8 0.1,-0.6 -0.6,-0.9 -1,-0.5 z" id="path237"></path>
      <g id="g239">
        <path class="st62" d="m 292.1,1901.9 c -1,-0.7 -1.2,-2 -0.6,-3.1 0.7,-1 2,-1.2 3.1,-0.6 1,0.7 1.2,2 0.6,3.1 -0.6,1.1 -2,1.2 -3.1,0.6 z" id="path238"></path>
        <path class="st16" d="M 310.9,1920.2" id="path239"></path>
      </g>
    </g>
    <g id="g241">
      <path class="st16" d="m 227.8,1984.1 c -6,3.4 -10.4,0.5 -11.6,-3.4 -0.3,-1 -0.5,-1.9 -0.5,-1.9 l 14.7,-4.5 c -0.9,-2.8 -2,9.5 -2.5,9.8 z" id="path240"></path>
      <path class="st16" d="M 251.6,1991.6" id="path241"></path>
    </g>
    <circle class="st16" cx="277" cy="1903.9" r="5.4000001" id="circle241"></circle>
  </g>
</svg>