<?xml version="1.0" encoding="UTF-8" standalone="no"?>
<svg id="Layer_1" version="1.1" viewBox="0 0 500.00001 250" width="500" height="250" xmlns:xlink="http://www.w3.org/1999/xlink" xmlns="http://www.w3.org/2000/svg" xmlns:svg="http://www.w3.org/2000/svg">
  
  <defs id="defs50">
    
    <linearGradient id="linear-gradient" x1="-1782.4" y1="-421.29999" x2="-1782.4" y2="-236.10001" gradientUnits="userSpaceOnUse">
      <stop offset=".3" stop-color="#256493" id="stop1"></stop>
      <stop offset=".8" stop-color="#341f44" id="stop2"></stop>
    </linearGradient>
    <linearGradient xlink:href="#linear-gradient" id="linearGradient260" gradientUnits="userSpaceOnUse" x1="-1782.4" y1="-421.29999" x2="-1782.4" y2="-236.10001"></linearGradient>
  </defs>
  <g id="g70" transform="translate(1905,489.44999)">
    <path class="st52" d="m -1782.3,-459.7 h -0.1 c -52.6,0 -95.3,42.8 -95.3,95.4 v 68.8 l 39.7,-39.7 c -4,-2.4 -6.6,-6.8 -6.6,-11.7 0,-7.6 6.2,-13.7 13.7,-13.7 7.5,0 9.3,2.7 11.7,6.6 l 15.2,-15.2 c 5.2,-5.2 13.8,-5.2 19,0 l 26.5,-27.6 c 0,0 1.7,1.4 3.6,3.3 7.4,7.1 8.9,20.2 -5.5,29.7 -1.2,0.8 -0.3,2.7 1.1,2.3 4.9,-1.5 9.7,-4.2 13.3,-7.8 1,-1 2.8,0 2.5,1.3 l -19.4,98.8 h 75.8 v -95.1 c 0,-52.6 -42.7,-95.3 -95.3,-95.3 z" id="path56" style="fill:url(#linearGradient260)"></path>
    <g id="g68">
      <g id="g64">
        <polygon class="st53" points="-1659.3,-437.4 -1644.2,-437.4 -1644.2,-394.5 -1633.5,-394.5 -1633.5,-437.4 -1618.4,-437.4 -1618.4,-447.4 -1659.3,-447.4 " id="polygon56"></polygon>
        <path class="st53" d="m -1597.3,-420.2 c 4.9,0 7.7,2.9 7.7,8.1 v 17.5 h 9.9 V -415 c 0,-4.5 -1.5,-8.3 -4.3,-11 -2.8,-2.6 -6.6,-4.1 -10.5,-3.9 -5.8,0.3 -9.5,3 -9.6,3 l -0.8,0.6 v -23 h -9.9 v 54.7 h 9.9 v -17.8 c 0,-4.9 2.9,-7.9 7.7,-7.9 h -0.1 z" id="path57"></path>
        <path class="st53" d="m -1449.9,-358.3 c 4.9,0 7.7,2.9 7.7,8.1 v 17.5 h 9.9 v -20.4 c 0,-4.5 -1.5,-8.3 -4.3,-11 -2.8,-2.6 -6.6,-4.1 -10.5,-3.9 -5.8,0.3 -9.5,3 -9.6,3 l -0.8,0.6 v -23 h -9.9 v 54.7 h 9.9 v -17.8 c 0,-4.9 2.9,-7.9 7.7,-7.9 h -0.1 z" id="path58"></path>
        <path class="st53" d="m -1550.3,-295.2 c 4.9,0 7.7,2.9 7.7,8.1 v 17.5 h 9.9 V -290 c 0,-4.5 -1.5,-8.3 -4.3,-11 -2.8,-2.6 -6.6,-4.1 -10.5,-3.9 -5.8,0.3 -9.5,3 -9.6,3 l -0.5,0.4 -1.1,-2.8 h -9 v 34.7 h 9.9 v -17.8 c 0,-4.9 2.9,-7.9 7.7,-7.9 h -0.2 z" id="path59"></path>
        <path class="st53" d="m -1557.9,-429.8 c -10.1,0 -18.3,8.2 -18.3,18.3 0,10.1 8.2,18.3 18.3,18.3 10.1,0 12.7,-3.5 15.9,-9.5 l -7.7,-4.1 c -1.6,2 -4.1,4.5 -8.1,4.5 -4,0 -3.9,-0.7 -4.9,-1.3 l -0.8,-0.5 22.2,-11.2 c -0.2,-5.4 -5.7,-14.5 -16.6,-14.5 z m -9.1,18.5 v -0.9 c 0.8,-5.3 4.8,-9.3 9.4,-9.3 4.6,0 4.7,1.1 5.6,1.7 l 0.6,0.5 z" id="path60"></path>
        <path class="st53" d="m -1588.8,-306.1 c -10.1,0 -18.3,8.2 -18.3,18.3 0,10.1 8.2,18.3 18.3,18.3 10.1,0 12.7,-3.5 15.9,-9.5 l -7.7,-4.1 c -1.6,2 -4.1,4.5 -8.1,4.5 -4,0 -3.9,-0.7 -4.9,-1.3 l -0.8,-0.5 22.2,-11.2 c -0.2,-5.4 -5.7,-14.5 -16.6,-14.5 z m -9.1,18.5 v -0.9 c 0.8,-5.3 4.8,-9.3 9.4,-9.3 4.6,0 4.7,1.1 5.6,1.7 l 0.6,0.5 z" id="path61"></path>
        <path class="st53" d="m -1664.2,-359.1 c 0,15.2 12.4,27.6 27.6,27.6 15.2,0 13.9,-1.5 20.7,-8.6 v -22.6 h -21.2 l -4.6,9.7 h 15.2 v 8.6 c 0,0 -4.3,2.9 -10.1,2.9 -9.4,0 -17,-7.9 -17,-17.6 0,-9.7 7.6,-17.6 17,-17.6 9.4,0 8.4,1.9 12.5,4.9 l 7,-6.7 c -5.2,-5.3 -12.1,-8.2 -19.6,-8.2 -15.2,0 -27.6,12.4 -27.6,27.6 z" id="path62"></path>
        <polygon class="st53" points="-1601.5,-366.8 -1611.1,-366.8 -1611.1,-332.7 -1601.2,-332.7 -1601.2,-353.4 -1592.3,-357.9 -1592.3,-367.6 -1601.1,-362.9 " id="polygon62"></polygon>
        <path class="st53" d="m -1572.5,-368 c -10.1,0 -18.3,8.2 -18.3,18.3 0,10.1 8.2,18.3 18.3,18.3 10.1,0 18.3,-8.2 18.3,-18.3 0,-10.1 -8.2,-18.3 -18.3,-18.3 z m 0,27.5 c -4.6,0 -8.4,-4.1 -8.4,-9.2 0,-5.1 3.8,-9.2 8.4,-9.2 4.6,0 8.4,4.1 8.4,9.2 0,5.1 -3.8,9.2 -8.4,9.2 z" id="path63"></path>
        <polygon class="st53" points="-1525.7,-349.1 -1514.6,-330.8 -1495.6,-366.8 -1506.2,-366.8 -1514.7,-349.5 -1525.6,-368.7 -1536.1,-349.4 -1544.7,-366.8 -1555.7,-366.8 -1536.7,-330.8 " id="polygon63"></polygon>
        <polygon class="st53" points="-1477.5,-357.7 -1470.8,-357.7 -1470.8,-366.8 -1477.5,-366.8 -1477.5,-381.6 -1487.4,-376.1 -1487.4,-366.8 -1493.2,-366.8 -1493.2,-357.7 -1487.4,-357.7 -1487.4,-332.7 -1477.5,-332.7 " id="polygon64"></polygon>
        <path class="st53" d="m -1636.8,-322.4 h -22.4 v 52.9 h 22.4 c 14.6,0 26.4,-11.9 26.4,-26.4 0,-14.5 -11.9,-26.5 -26.4,-26.5 z m 0,42.8 h -11.8 v -32.8 h 11.8 c 8.7,0 15.8,7.4 15.8,16.4 0,9 -7.1,16.4 -15.8,16.4 z" id="path64"></path>
      </g>
      <g id="g67">
        <path class="st62" d="m -1792.7,-353.5 c -2.5,-1.7 -3.1,-5.1 -1.4,-7.6 1.7,-2.5 5.1,-3.1 7.6,-1.4 2.5,1.7 3.1,5.1 1.4,7.6 -1.7,2.5 -5.1,3.1 -7.6,1.4 z" id="path65"></path>
        <path class="st64" d="M -1745.9,-307.9" id="path66"></path>
        <path class="st51" d="m -1737.1,-428.1 v 0 c -3.3,8.1 -9.8,14.6 -17.9,17.9 v 0 c 8.1,3.3 14.6,9.8 17.9,17.9 v 0 c 3.3,-8.1 9.8,-14.6 17.9,-17.9 v 0 c -8.1,-3.3 -14.6,-9.8 -17.9,-17.9 z" id="path67"></path>
      </g>
    </g>
    <g class="st56" id="g69">
      <path class="st53" d="m -1518,-279.3 c 0.8,0.4 1.4,1.1 1.8,1.8 0.4,0.8 0.7,1.7 0.7,2.6 0,0.9 -0.2,1.9 -0.7,2.6 -0.4,0.8 -1,1.4 -1.8,1.9 -0.8,0.4 -1.6,0.7 -2.6,0.7 -1,0 -1.9,-0.2 -2.6,-0.7 -0.7,-0.5 -1.4,-1.1 -1.8,-1.9 -0.4,-0.8 -0.7,-1.7 -0.7,-2.6 0,-0.9 0.2,-1.9 0.7,-2.6 0.4,-0.8 1,-1.4 1.8,-1.8 0.8,-0.4 1.7,-0.7 2.6,-0.7 0.9,0 1.8,0.2 2.6,0.7 z m 0.3,7.5 c 0.7,-0.8 1.1,-1.8 1.1,-3 0,-1.2 -0.4,-2.2 -1.1,-3 -0.7,-0.8 -1.7,-1.2 -2.9,-1.2 -1.2,0 -2.2,0.4 -2.9,1.2 -0.7,0.8 -1.1,1.8 -1.1,3 0,1.2 0.4,2.2 1.1,3 0.7,0.8 1.7,1.2 2.9,1.2 1.2,0 2.2,-0.4 2.9,-1.2 z m -0.9,-3 c -0.2,0.3 -0.5,0.5 -0.9,0.6 l 1.4,2.1 h -1.6 c 0,0 -1.2,-2 -1.2,-2 h -0.4 v 2 h -1.3 v -5.4 h 2.4 c 0.6,0 1,0.2 1.4,0.5 0.3,0.3 0.5,0.7 0.5,1.2 0,0.5 -0.1,0.7 -0.3,1 z m -2.7,-0.4 h 1 c 0.2,0 0.3,0 0.5,-0.2 0.1,-0.1 0.2,-0.2 0.2,-0.4 0,-0.2 0,-0.3 -0.2,-0.4 -0.1,0 -0.3,-0.1 -0.5,-0.1 h -1 z" id="path68"></path>
    </g>
  </g>
</svg>