<?xml version="1.0" encoding="UTF-8" standalone="no"?>
<svg id="Layer_1" version="1.1" viewBox="0 0 200 200" width="200" height="200" xmlns:xlink="http://www.w3.org/1999/xlink" xmlns="http://www.w3.org/2000/svg" xmlns:svg="http://www.w3.org/2000/svg">
  
  <defs id="defs50">
    
    <linearGradient id="linear-gradient3" x1="1872.5" y1="934.29999" x2="1872.5" y2="934.29999" gradientUnits="userSpaceOnUse">
      <stop offset="0" stop-color="#256493" id="stop8"></stop>
      <stop offset=".8" stop-color="#341f44" id="stop9"></stop>
    </linearGradient>
    <linearGradient id="linear-gradient31" x1="256.29999" y1="680.40002" x2="256.29999" y2="739.20001" xlink:href="#linear-gradient3"></linearGradient>
    <clipPath id="clippath-1">
      <path class="st0" d="m 311.9,713 c 0,20.9 -34.7,29.6 -55.6,29.6 -20.9,0 -37.8,-16.9 -37.8,-37.8 0,-20.9 16.9,-37.8 37.8,-37.8 20.9,0 55.6,25.1 55.6,46 z" id="path47"></path>
    </clipPath>
    <linearGradient id="linear-gradient32" x1="873.40002" y1="667.59998" x2="873.40002" y2="667.59998" gradientTransform="matrix(-1,0,0,1,1129.8,0)" xlink:href="#linear-gradient3"></linearGradient>
  </defs>
  <g id="g267" transform="matrix(2.2660752,0,0,2.2660752,-493.03186,-1497.3564)">
    <g id="g222">
      <circle class="st24" cx="256.29999" cy="704.90002" r="37.799999" id="circle216" style="fill:url(#linear-gradient31)"></circle>
      <g class="st57" clip-path="url(#clippath-1)" id="g221">
        <g id="g220">
          <path class="st54" d="m 234.2,694 c 5.9,0 10.6,-4.7 10.6,-10.6 v 0 c 0,-5.9 -4.7,-10.6 -10.6,-10.6 h -5.6 c -5.8,5.1 -9.8,12.3 -10.8,20.4 0,0.6 0,0.8 0,0.8 z" id="path217"></path>
          <path class="st27" d="m 256.4,667.6 c 0,0 0,0 0,0 0,0 0,0 0,0 h 0.1 z" id="path218" style="fill:url(#linear-gradient32)"></path>
          <rect class="st51" x="239.8" y="689.90002" width="65" height="34.599998" rx="17.299999" ry="17.299999" transform="rotate(180,272.35,707.15)" id="rect218"></rect>
          <polyline class="st51" points="262.6 721.2 262.6 724.5 255.5 731.6 253.3 721.2" id="polyline218"></polyline>
          <g id="g18">
            <polyline class="st51" points="262.6 721.2 262.6 724.5 255.5 731.6 253.3 721.2" id="polyline218-4" style="fill:#ffc545" transform="translate(849.28539,13.431282)"></polyline>
          </g>
          <polyline class="st54" points="231.3 692 231.3 694 235.7 698.4 237 692" id="polyline219"></polyline>
          <rect class="st16" x="270.20001" y="685.70001" width="4.0999999" height="35.900002" rx="2.0999999" ry="2.0999999" transform="rotate(90,272.25,703.65)" id="rect219"></rect>
          <rect class="st16" x="264.89999" y="698.70001" width="4.0999999" height="25.200001" rx="2.0999999" ry="2.0999999" transform="rotate(90,266.9,711.3)" id="rect220"></rect>
        </g>
      </g>
    </g>
  </g>
</svg>