<?xml version="1.0" encoding="UTF-8" standalone="no"?>
<svg id="Layer_1" version="1.1" viewBox="0 0 200 200" width="200" height="200" xmlns:xlink="http://www.w3.org/1999/xlink" xmlns="http://www.w3.org/2000/svg" xmlns:svg="http://www.w3.org/2000/svg">
  
  <defs id="defs50">
    
    <linearGradient id="linear-gradient3" x1="1872.5" y1="934.29999" x2="1872.5" y2="934.29999" gradientUnits="userSpaceOnUse">
      <stop offset="0" stop-color="#256493" id="stop8"></stop>
      <stop offset=".8" stop-color="#341f44" id="stop9"></stop>
    </linearGradient>
    <linearGradient id="linear-gradient12" x1="170.7" y1="680.40002" x2="170.7" y2="739.20001" xlink:href="#linear-gradient3"></linearGradient>
    <linearGradient id="linear-gradient30" x1="170.8" y1="667.09998" x2="170.8" y2="667.09998" xlink:href="#linear-gradient3"></linearGradient>
  </defs>
  <g id="g268" transform="matrix(2.2660752,0,0,2.2660752,-286.81904,-1497.3564)">
    <circle class="st36" cx="170.7" cy="704.90002" r="37.799999" id="circle176" style="fill:url(#linear-gradient12)"></circle>
    <circle class="st51" cx="170.8" cy="704.40002" r="24.9" id="circle189"></circle>
    <circle class="st6" cx="170.7" cy="704.40002" r="20.6" id="circle190"></circle>
    <g id="g190">
      <path class="st16" d="m 178.2,713.1 c -0.5,1 -1.4,1.8 -2.4,2.5 -1,0.7 -2.3,1.1 -3.8,1.2 v 2.7 h -2.2 v -2.7 c -2.1,-0.2 -3.8,-0.9 -5.1,-2 -1.3,-1.1 -1.9,-2.6 -1.9,-4.4 h 4.1 c 0,0.9 0.3,1.6 0.8,2.2 0.5,0.6 1.2,0.9 2.1,1.1 v -7.4 c -1.5,-0.4 -2.7,-0.8 -3.7,-1.2 -0.9,-0.4 -1.7,-1 -2.4,-1.9 -0.7,-0.8 -1,-2 -1,-3.5 0,-1.5 0.6,-3.4 1.9,-4.6 1.3,-1.2 3,-1.9 5.1,-2.1 v -2.7 h 2.2 v 2.7 c 2,0.2 3.5,0.8 4.7,1.9 1.2,1.1 1.9,2.5 2,4.4 h -4.1 c 0,-0.7 -0.3,-1.3 -0.8,-1.9 -0.5,-0.5 -1.1,-0.9 -1.9,-1.1 v 7.2 c 1.5,0.4 2.7,0.7 3.7,1.1 0.9,0.4 1.7,1 2.4,1.8 0.6,0.8 1,2 1,3.5 0,1.5 -0.3,2.2 -0.8,3.2 z m -10.7,-11.4 c 0.5,0.5 1.3,0.9 2.3,1.2 v -6.8 c -1,0.1 -1.7,0.5 -2.3,1 -0.6,0.6 -0.9,1.4 -0.9,2.3 0,0.9 0.3,1.6 0.8,2.1 z m 6.8,10.7 c 0.6,-0.6 0.8,-1.4 0.8,-2.3 0,-0.9 -0.3,-1.6 -0.8,-2.1 -0.5,-0.5 -1.3,-0.9 -2.3,-1.2 v 6.8 c 1,-0.2 1.8,-0.6 2.3,-1.2 z" id="path190"></path>
      <rect class="st16" x="169.39999" y="690.20001" width="2.7" height="29.299999" id="rect190"></rect>
    </g>
    <path class="st25" d="m 170.7,667.1 c 0,0 0,0 0,0 0,0 0,0 0,0 h -0.1 z" id="path216" style="fill:url(#linear-gradient30)"></path>
  </g>
  <ellipse style="opacity:0.27809;fill:#341f44;fill-opacity:1" id="path2" cx="83.245972" cy="151.21954" rx="10.586095" ry="10.73111"></ellipse>
</svg>