<?xml version="1.0" encoding="UTF-8" standalone="no"?>
<svg id="Layer_1" version="1.1" viewBox="0 0 1200 299.99999" width="1200" height="300" xmlns:xlink="http://www.w3.org/1999/xlink" xmlns="http://www.w3.org/2000/svg" xmlns:svg="http://www.w3.org/2000/svg">
  
  <defs id="defs50">
    
    <linearGradient id="linear-gradient2" x1="1872.5" y1="902.90002" x2="1872.5" y2="1014.9" gradientUnits="userSpaceOnUse">
      <stop offset="0" stop-color="#256493" id="stop3"></stop>
      <stop offset=".2" stop-color="#265e8c" id="stop4"></stop>
      <stop offset=".5" stop-color="#294d79" id="stop5"></stop>
      <stop offset=".8" stop-color="#2f335b" id="stop6"></stop>
      <stop offset="1" stop-color="#341f44" id="stop7"></stop>
    </linearGradient>
    <linearGradient id="linear-gradient3" x1="1872.5" y1="934.29999" x2="1872.5" y2="934.29999" gradientUnits="userSpaceOnUse">
      <stop offset="0" stop-color="#256493" id="stop8"></stop>
      <stop offset=".8" stop-color="#341f44" id="stop9"></stop>
    </linearGradient>
    <linearGradient id="linear-gradient4" x1="2153.3999" y1="904.90002" x2="2153.3999" y2="1016.9" gradientUnits="userSpaceOnUse">
      <stop offset="0" stop-color="#256493" id="stop10"></stop>
      <stop offset=".2" stop-color="#265e8c" id="stop11"></stop>
      <stop offset=".5" stop-color="#294d79" id="stop12"></stop>
      <stop offset=".8" stop-color="#2f335b" id="stop13"></stop>
      <stop offset="1" stop-color="#341f44" id="stop14"></stop>
    </linearGradient>
    <linearGradient id="linear-gradient21" x1="530.79999" y1="283.29999" x2="530.79999" y2="374.60001" xlink:href="#linear-gradient2"></linearGradient>
    <linearGradient id="linear-gradient22" x1="530.79999" y1="308.89999" x2="530.79999" y2="308.89999" xlink:href="#linear-gradient3"></linearGradient>
    <linearGradient id="linear-gradient23" x1="759.70001" y1="284.89999" x2="759.70001" y2="376.20001" xlink:href="#linear-gradient4"></linearGradient>
    <linearGradient id="linear-gradient24" x1="759.70001" y1="308.89999" x2="759.70001" y2="308.89999" xlink:href="#linear-gradient3"></linearGradient>
    <linearGradient id="linear-gradient25" x1="644.90002" y1="284.39999" x2="644.90002" y2="375.70001" xlink:href="#linear-gradient4"></linearGradient>
    <linearGradient id="linear-gradient26" x1="644.90002" y1="308.89999" x2="644.90002" y2="308.89999" xlink:href="#linear-gradient3"></linearGradient>
    <linearGradient id="linear-gradient27" x1="393.41034" y1="356.43588" x2="569.5" y2="356.70001" gradientUnits="userSpaceOnUse">
      <stop offset="0" stop-color="#ffc545" id="stop28" style="stop-color:#e5340b;stop-opacity:0;"></stop>
      <stop offset="0.15962018" stop-color="#bc2f17" id="stop39" style="stop-color:#e5340b;stop-opacity:1;"></stop>
      <stop offset="0.75894207" stop-color="#882928" id="stop41" style="stop-color:#e5340b;stop-opacity:1;"></stop>
      <stop offset="1" stop-color="#3f2040" id="stop43"></stop>
      <stop offset="1" stop-color="#341f44" id="stop44"></stop>
    </linearGradient>
    <linearGradient id="linear-gradient28" x1="721" y1="327.89999" x2="839" y2="327.89999" gradientUnits="userSpaceOnUse">
      <stop offset="0" stop-color="#341f44" id="stop45"></stop>
      <stop offset="0" stop-color="#3a1f41" id="stop46"></stop>
      <stop offset="1" stop-color="#e0320d" id="stop47"></stop>
    </linearGradient>
    <linearGradient id="linear-gradient29" x1="721" y1="308" x2="839" y2="308" xlink:href="#linear-gradient28"></linearGradient>
    <linearGradient xlink:href="#linear-gradient28" id="linearGradient12" gradientUnits="userSpaceOnUse" x1="721" y1="327.89999" x2="839" y2="327.89999"></linearGradient>
  </defs>
  <g id="g264" transform="matrix(2.4667882,0,0,2.4667882,-925.58321,-716.14116)">
    <g id="g206">
      <path class="st48" d="m 530.8,308.9 c -21.4,0 -38.7,17.4 -38.7,38.8 v 37 h 77.4 v -37 c 0,-21.4 -17.4,-38.7 -38.7,-38.8 z" id="path205" style="fill:url(#linear-gradient21)"></path>
      <path class="st45" d="m 530.8,308.9 c 0,0 0,0 0,0 0,0 0,0 0,0 h -0.1 z" id="path206" style="fill:url(#linear-gradient22)"></path>
    </g>
    <g id="g208">
      <path class="st44" d="m 759.7,308.9 c -21.4,0 -38.7,17.4 -38.7,38.8 v 37 h 77.4 v -37 c 0,-21.4 -17.4,-38.7 -38.7,-38.8 z" id="path207" style="fill:url(#linear-gradient23)"></path>
      <path class="st46" d="m 759.6,308.9 c 0,0 0,0 0,0 0,0 0,0 0,0 h -0.1 z" id="path208" style="fill:url(#linear-gradient24)"></path>
    </g>
    <g id="g210">
      <path class="st47" d="m 644.9,308.9 c -21.4,0 -38.7,17.4 -38.7,38.8 v 37 h 77.4 v -37 c 0,-21.4 -17.4,-38.7 -38.7,-38.8 z" id="path209" style="fill:url(#linear-gradient25)"></path>
      <path class="st50" d="m 644.9,308.9 c 0,0 0,0 0,0 0,0 0,0 0,0 h -0.1 z" id="path210" style="fill:url(#linear-gradient26)"></path>
    </g>
    <path class="st8" d="m 569.5,355 c -24.7,0 -27.8,-8.3 -41.7,-8.3 -21.2,0 -29.8,35.4 -15.1,37.9 14.7,2.5 12.3,-13.1 9.3,-31.4 -3,-18.3 -18,-30 -28.1,-28.9 -10.1,1.1 -13.5,10 -16.2,22.4 -3.9,18.3 -14.1,33.2 -35.6,40 -21.5,6.8 -30.7,-12.1 -21.8,-22.8 5.8,-6.9 10.8,-5.5 10.8,-18.9 0,-7 -2.3,-17.6 1.8,-27.7 4.1,-10.1 22.7,-5.7 17.2,6.6 -5.5,12.3 3.2,31.5 19,40.5 15.8,9 23.6,17.1 21.1,27.2 -3.4,14.1 -22,17.5 -23.4,5.1 -1.4,-12.4 3.1,-10.2 8.3,-20.4 7.4,-14.5 -4,-20.2 -11,-29.5 -8.1,-10.7 -6.5,-21.6 -5.1,-27.9 2.2,-9.8 15.6,-13.5 20.1,-6.2 4.5,7.3 2.3,13.3 -9.1,16.4 -11.4,3.1 -16.9,9.6 -19.9,18.1 -3,8.5 -1.1,17.2 5.1,30.7 6.2,13.6 -0.8,25 -9.8,25.3 -9,0.3 -16.7,-6.7 -9,-20.3 7.7,-13.6 21.4,-14.4 29.2,-3.2 7.8,11.2 11.5,22.6 29.1,20.3 17.5,-2.3 22.1,-22.4 18.7,-35.8 -3.4,-13.4 -22.8,-14.9 -28.3,-8.1 -5.5,6.8 1.9,13 9.1,9.8 12,-5.4 9.4,-25.8 -7.5,-28.7 -17,-2.8 -23.2,10.9 -27.7,20.9 -4.5,10 -15.3,12.6 -25.6,7 -10.4,-5.7 -16,-8.7 -14,-23.2 2,-14.5 15.9,-11.1 19.8,-2 5.7,13 -13.60004,20.13763 -30.3,20.1 l -14.79689,-0.0333" id="path211" style="stroke:url(#linear-gradient27)"></path>
    <g id="g212">
      <path class="st7" d="m 721,355 c 11.9,0 -2.2,0 20,0 60.7,0 87.3,-42 94.2,-55.2" id="path212" style="stroke:url(#linearGradient12)"></path>
      <polygon class="st33" points="838.9,320.2 834.3,301 815.5,307 814.2,303.2 837.2,295.9 842.8,319.3 " id="polygon212" style="fill:url(#linear-gradient29)"></polygon>
    </g>
    <path class="st16" d="m 644.4,324.9 v 0 c -4,9.9 -11.9,17.8 -21.8,21.8 v 0 c 9.9,4 17.8,11.9 21.8,21.8 v 0 c 4,-9.9 11.9,-17.8 21.8,-21.8 v 0 c -9.9,-4 -17.8,-11.9 -21.8,-21.8 z" id="path213" style="fill:#ffc545;fill-opacity:1"></path>
    <path class="st16" d="m 621.4,362.9 v 0 c -1.2,3 -3.6,5.4 -6.6,6.6 v 0 c 3,1.2 5.4,3.6 6.6,6.6 v 0 c 1.2,-3 3.6,-5.4 6.6,-6.6 v 0 c -3,-1.2 -5.4,-3.6 -6.6,-6.6 z" id="path214" style="fill:#ffc545;fill-opacity:1"></path>
    <path class="st16" d="m 671.1,309.4 v 0 c -1.9,4.7 -5.7,8.5 -10.4,10.4 v 0 c 4.7,1.9 8.5,5.7 10.4,10.4 v 0 c 1.9,-4.7 5.7,-8.5 10.4,-10.4 v 0 c -4.7,-1.9 -8.5,-5.7 -10.4,-10.4 z" id="path215" style="fill:#ffc545;fill-opacity:1"></path>
    <g id="g254">
      <line class="st2" x1="575.29999" y1="355" x2="575.29999" y2="355" id="line252"></line>
      <line class="st1" x1="583.90002" y1="355" x2="596.70001" y2="355" id="line253"></line>
      <line class="st2" x1="601" y1="355" x2="601" y2="355" id="line254"></line>
    </g>
    <g id="g257">
      <line class="st2" x1="689.29999" y1="355" x2="689.29999" y2="355" id="line255"></line>
      <line class="st1" x1="697.90002" y1="355" x2="710.79999" y2="355" id="line256"></line>
      <line class="st2" x1="715.09998" y1="355" x2="715.09998" y2="355" id="line257"></line>
    </g>
  </g>
</svg>